HIERARCHY
ROOT Hips
{
	OFFSET 0.000000 83.214638 0.000000
	CHANNELS 6 Xposition Yposition Zposition Xrotation Yrotation Zrotation
	JOINT Pelvis
	{
		OFFSET 0.000000 0.000000 0.000000
		CHANNELS 3 Xrotation Yrotation Zrotation
		JOINT LeftUpLeg
		{
			OFFSET 8.479700 -4.795502 -0.379100
			CHANNELS 3 Xrotation Yrotation Zrotation
			JOINT LeftLeg
			{
				OFFSET 0.024144 -32.555107 0.112900
				CHANNELS 3 Xrotation Yrotation Zrotation
				JOINT LeftFoot
				{
					OFFSET -0.024144 -32.638630 -3.012600
					CHANNELS 3 Xrotation Yrotation Zrotation
					JOINT LeftToeBase
					{
						OFFSET 0.970200 -13.225400 11.864200
						CHANNELS 3 Xrotation Yrotation Zrotation
						End Site
						{
							OFFSET 0.000000 12.319262 0.000000
						}
					}
					JOINT LFootTongue
					{
						OFFSET 1.142400 -1.059800 6.665200
						CHANNELS 3 Xrotation Yrotation Zrotation
						End Site
						{
							OFFSET 0.000000 12.319262 0.000000
						}
					}
				}
				JOINT LeftPantLeg
				{
					OFFSET 0.918482 -16.533964 -2.284700
					CHANNELS 3 Xrotation Yrotation Zrotation
					End Site
					{
						OFFSET 0.350399 24.744368 0.000000
					}
				}
			}
		}
		JOINT RightUpLeg
		{
			OFFSET -8.479700 -4.795502 -0.379100
			CHANNELS 3 Xrotation Yrotation Zrotation
			JOINT RightLeg
			{
				OFFSET -0.023144 -32.555092 0.112900
				CHANNELS 3 Xrotation Yrotation Zrotation
				JOINT RightFoot
				{
					OFFSET 0.023144 -32.638641 -3.012700
					CHANNELS 3 Xrotation Yrotation Zrotation
					JOINT RightToeBase
					{
						OFFSET -0.970200 -13.225400 11.864200
						CHANNELS 3 Xrotation Yrotation Zrotation
						End Site
						{
							OFFSET 0.000000 12.319244 0.000000
						}
					}
					JOINT RFootTongue
					{
						OFFSET -1.142200 -1.059800 6.665200
						CHANNELS 3 Xrotation Yrotation Zrotation
						End Site
						{
							OFFSET 0.000000 12.319243 0.000000
						}
					}
				}
				JOINT RightPantLeg
				{
					OFFSET -0.919482 -16.533978 -2.284800
					CHANNELS 3 Xrotation Yrotation Zrotation
					End Site
					{
						OFFSET -0.350400 24.744419 0.000000
					}
				}
			}
		}
	}
	JOINT Spine
	{
		OFFSET 0.000000 7.722000 1.166200
		CHANNELS 3 Xrotation Yrotation Zrotation
		JOINT Spine1
		{
			OFFSET 0.000000 12.024101 0.248800
			CHANNELS 3 Xrotation Yrotation Zrotation
			JOINT Spine2
			{
				OFFSET 0.000000 11.502998 -0.491200
				CHANNELS 3 Xrotation Yrotation Zrotation
				JOINT Neck
				{
					OFFSET 0.000000 18.430702 -3.123100
					CHANNELS 3 Xrotation Yrotation Zrotation
					JOINT Head
					{
						OFFSET 0.000000 9.051102 1.034000
						CHANNELS 3 Xrotation Yrotation Zrotation
						JOINT HairB
						{
							OFFSET 0.208400 24.786102 24.822300
							CHANNELS 3 Xrotation Yrotation Zrotation
							End Site
							{
								OFFSET 0.000000 32.263779 0.000000
							}
						}
						JOINT HairA
						{
							OFFSET -7.081100 24.428299 23.196600
							CHANNELS 3 Xrotation Yrotation Zrotation
							End Site
							{
								OFFSET 0.000000 32.263779 0.000000
							}
						}
						JOINT Hat
						{
							OFFSET 16.728800 15.048294 -15.439601
							CHANNELS 3 Xrotation Yrotation Zrotation
							End Site
							{
								OFFSET 0.000000 32.263779 0.000000
							}
						}
					}
				}
				JOINT LeftShoulder
				{
					OFFSET 6.197800 13.665199 -4.064700
					CHANNELS 3 Xrotation Yrotation Zrotation
					JOINT LeftArm
					{
						OFFSET 7.778100 -0.187103 -1.709300
						CHANNELS 3 Xrotation Yrotation Zrotation
						JOINT LeftForeArm
						{
							OFFSET 22.049376 0.000000 0.000000
							CHANNELS 3 Xrotation Yrotation Zrotation
							JOINT LeftHand
							{
								OFFSET 23.009392 0.000000 0.000000
								CHANNELS 3 Xrotation Yrotation Zrotation
								JOINT LeftHandThumb1
								{
									OFFSET 3.507191 -2.063065 3.133727
									CHANNELS 3 Xrotation Yrotation Zrotation
									JOINT LeftHandThumb2
									{
										OFFSET 3.101337 -1.790558 1.790558
										CHANNELS 3 Xrotation Yrotation Zrotation
										JOINT LeftHandThumb3
										{
											OFFSET 3.058640 -1.765907 1.765906
											CHANNELS 3 Xrotation Yrotation Zrotation
											End Site
											{
												OFFSET -0.415260 3.926476 -0.049563
											}
										}
									}
								}
								JOINT LeftHandIndex1
								{
									OFFSET 11.334419 -0.901459 3.706815
									CHANNELS 3 Xrotation Yrotation Zrotation
									JOINT LeftHandIndex2
									{
										OFFSET 3.283112 0.000000 0.000000
										CHANNELS 3 Xrotation Yrotation Zrotation
										JOINT LeftHandIndex3
										{
											OFFSET 3.323853 0.000000 0.000000
											CHANNELS 3 Xrotation Yrotation Zrotation
											End Site
											{
												OFFSET -1.135597 3.097809 0.402452
											}
										}
									}
								}
								JOINT LeftHandMiddle1
								{
									OFFSET 11.335861 0.000000 0.000000
									CHANNELS 3 Xrotation Yrotation Zrotation
									JOINT LeftHandMiddle2
									{
										OFFSET 3.410492 0.000000 0.000000
										CHANNELS 3 Xrotation Yrotation Zrotation
										JOINT LeftHandMiddle3
										{
											OFFSET 3.312172 0.000000 0.000000
											CHANNELS 3 Xrotation Yrotation Zrotation
											End Site
											{
												OFFSET -1.150200 3.080154 0.400270
											}
										}
									}
								}
								JOINT LeftHandRing1
								{
									OFFSET 11.514786 -0.013176 -3.003090
									CHANNELS 3 Xrotation Yrotation Zrotation
									JOINT LeftHandRing2
									{
										OFFSET 3.053307 0.000000 0.000000
										CHANNELS 3 Xrotation Yrotation Zrotation
										JOINT LeftHandRing3
										{
											OFFSET 3.295807 0.000000 0.000000
											CHANNELS 3 Xrotation Yrotation Zrotation
											End Site
											{
												OFFSET -1.281006 3.013344 0.375733
											}
										}
									}
								}
								JOINT LeftHandPinky1
								{
									OFFSET 10.518692 -0.960396 -5.730441
									CHANNELS 3 Xrotation Yrotation Zrotation
									JOINT LeftHandPinky2
									{
										OFFSET 2.861649 0.000000 0.000000
										CHANNELS 3 Xrotation Yrotation Zrotation
										JOINT LeftHandPinky3
										{
											OFFSET 2.863380 0.000000 0.000000
											CHANNELS 3 Xrotation Yrotation Zrotation
											End Site
											{
												OFFSET -0.843597 2.711159 0.369971
											}
										}
									}
								}
							}
							JOINT LSleeve
							{
								OFFSET 6.676277 -0.344902 -1.011730
								CHANNELS 3 Xrotation Yrotation Zrotation
								End Site
								{
									OFFSET 0.000000 14.885353 0.000000
								}
							}
						}
					}
				}
				JOINT RightShoulder
				{
					OFFSET -6.197800 13.665199 -4.064700
					CHANNELS 3 Xrotation Yrotation Zrotation
					JOINT RightArm
					{
						OFFSET -7.778100 -0.187103 -1.709300
						CHANNELS 3 Xrotation Yrotation Zrotation
						JOINT RightForeArm
						{
							OFFSET -22.049376 0.000000 0.000000
							CHANNELS 3 Xrotation Yrotation Zrotation
							JOINT RightHand
							{
								OFFSET -23.009392 0.000000 0.000000
								CHANNELS 3 Xrotation Yrotation Zrotation
								JOINT RightHandThumb1
								{
									OFFSET -3.507191 -2.063065 3.133727
									CHANNELS 3 Xrotation Yrotation Zrotation
									JOINT RightHandThumb2
									{
										OFFSET -3.101337 -1.790558 1.790558
										CHANNELS 3 Xrotation Yrotation Zrotation
										JOINT RightHandThumb3
										{
											OFFSET -3.058640 -1.765907 1.765906
											CHANNELS 3 Xrotation Yrotation Zrotation
											End Site
											{
												OFFSET 0.415260 3.926476 -0.049563
											}
										}
									}
								}
								JOINT RightHandIndex1
								{
									OFFSET -11.334419 -0.901459 3.706815
									CHANNELS 3 Xrotation Yrotation Zrotation
									JOINT RightHandIndex2
									{
										OFFSET -3.283112 0.000000 0.000000
										CHANNELS 3 Xrotation Yrotation Zrotation
										JOINT RightHandIndex3
										{
											OFFSET -3.323853 0.000000 0.000000
											CHANNELS 3 Xrotation Yrotation Zrotation
											End Site
											{
												OFFSET 1.135597 3.097809 0.402452
											}
										}
									}
								}
								JOINT RightHandMiddle1
								{
									OFFSET -11.335861 0.000000 0.000000
									CHANNELS 3 Xrotation Yrotation Zrotation
									JOINT RightHandMiddle2
									{
										OFFSET -3.410492 0.000000 0.000000
										CHANNELS 3 Xrotation Yrotation Zrotation
										JOINT RightHandMiddle3
										{
											OFFSET -3.312172 0.000000 0.000000
											CHANNELS 3 Xrotation Yrotation Zrotation
											End Site
											{
												OFFSET 1.150200 3.080154 0.400270
											}
										}
									}
								}
								JOINT RightHandRing1
								{
									OFFSET -11.514786 -0.013176 -3.003090
									CHANNELS 3 Xrotation Yrotation Zrotation
									JOINT RightHandRing2
									{
										OFFSET -3.053307 0.000000 0.000000
										CHANNELS 3 Xrotation Yrotation Zrotation
										JOINT RightHandRing3
										{
											OFFSET -3.295807 0.000000 0.000000
											CHANNELS 3 Xrotation Yrotation Zrotation
											End Site
											{
												OFFSET 1.281006 3.013344 0.375733
											}
										}
									}
								}
								JOINT RightHandPinky1
								{
									OFFSET -10.518692 -0.960396 -5.730441
									CHANNELS 3 Xrotation Yrotation Zrotation
									JOINT RightHandPinky2
									{
										OFFSET -2.861649 0.000000 0.000000
										CHANNELS 3 Xrotation Yrotation Zrotation
										JOINT RightHandPinky3
										{
											OFFSET -2.863380 0.000000 0.000000
											CHANNELS 3 Xrotation Yrotation Zrotation
											End Site
											{
												OFFSET 0.843597 2.711159 0.369971
											}
										}
									}
								}
							}
							JOINT RSleeve
							{
								OFFSET -6.676277 -0.344902 -1.011730
								CHANNELS 3 Xrotation Yrotation Zrotation
								End Site
								{
									OFFSET 0.000000 14.885353 0.000000
								}
							}
						}
					}
				}
				JOINT Backpack
				{
					OFFSET 0.000000 -2.471497 36.677502
					CHANNELS 3 Xrotation Yrotation Zrotation
					End Site
					{
						OFFSET 0.000000 20.427315 0.000000
					}
				}
				JOINT Hood
				{
					OFFSET 0.000000 18.754097 -10.431000
					CHANNELS 3 Xrotation Yrotation Zrotation
					JOINT Hood1
					{
						OFFSET 0.000000 -5.011002 -7.685901
						CHANNELS 3 Xrotation Yrotation Zrotation
						End Site
						{
							OFFSET 0.000000 9.175140 0.000000
						}
					}
				}
				JOINT LHoodieString
				{
					OFFSET 5.250500 16.397697 3.089900
					CHANNELS 3 Xrotation Yrotation Zrotation
					JOINT LHoodieString1
					{
						OFFSET 0.257700 -6.364304 3.694600
						CHANNELS 3 Xrotation Yrotation Zrotation
						JOINT LHoodieString2
						{
							OFFSET 0.000000 -9.643799 2.679100
							CHANNELS 3 Xrotation Yrotation Zrotation
							End Site
							{
								OFFSET 0.000000 10.009018 0.000000
							}
						}
					}
				}
				JOINT RHoodieString
				{
					OFFSET -5.250500 16.397697 3.089900
					CHANNELS 3 Xrotation Yrotation Zrotation
					JOINT RHoodieString1
					{
						OFFSET -0.257700 -6.364304 3.694600
						CHANNELS 3 Xrotation Yrotation Zrotation
						JOINT RHoodieString2
						{
							OFFSET 0.000000 -9.643799 2.679100
							CHANNELS 3 Xrotation Yrotation Zrotation
							End Site
							{
								OFFSET 0.000000 10.009018 0.000000
							}
						}
					}
				}
			}
			JOINT LBackpack_Strap
			{
				OFFSET 15.223200 -7.719803 -6.610900
				CHANNELS 3 Xrotation Yrotation Zrotation
				End Site
				{
					OFFSET 0.000000 16.040596 0.000000
				}
			}
			JOINT RBackpack_Strap
			{
				OFFSET -15.223000 -7.719803 -6.610900
				CHANNELS 3 Xrotation Yrotation Zrotation
				End Site
				{
					OFFSET 0.000000 16.040596 0.000000
				}
			}
		}
	}
	JOINT BoyFacialAnim_Joint
	{
		OFFSET 1.000000 -82.208099 -1.550900
		CHANNELS 3 Xrotation Yrotation Zrotation
		End Site
		{
			OFFSET 0.000000 30.012791 0.000000
		}
	}
}
MOTION
Frames: 4
Frame Time: 0.016667
0.174310 67.487831 -4.956020 -11.642902 4.149708 0.314619 -0.000000 0.000000 -0.000000 -34.041977 -2.716296 13.984304 72.157820 -0.328092 0.474329 -26.202699 -3.466439 -11.427619 -0.000000 0.000000 0.000000 -0.000000 0.000000 0.000000 -0.000001 0.000001 -0.000001 -30.907887 -6.350238 -19.062611 73.136696 -0.232832 -0.587791 -29.618777 -2.085568 10.928094 0.000000 0.000002 0.000000 0.000000 0.000002 0.000000 -0.000001 -0.000001 -0.000001 23.956299 0.150155 0.839446 13.992120 -0.012109 0.874928 13.993092 -0.019272 0.870006 17.101286 -1.158556 -1.120068 -9.419543 -3.200687 0.179589 -0.000000 0.000000 0.000000 -0.000000 0.000000 0.000000 -0.000000 0.000000 0.000000 1.274362 -20.464775 -8.784591 -24.361967 0.125580 -58.409524 -134.037381 -77.572425 -130.766512 -10.954465 -21.976315 17.417638 20.303031 9.934872 -19.709489 3.939310 33.659486 6.068787 0.000001 -0.000002 -0.000000 11.348467 7.907838 -58.203676 11.226037 12.103255 -91.045582 0.000001 -0.000001 -0.000004 -3.306162 14.721245 -56.170168 18.751050 6.507075 -95.555583 -0.000000 0.000000 0.000002 -8.496622 16.099263 -73.492207 10.309632 4.265375 -84.428371 -0.000003 0.000001 -0.000000 -15.187820 25.469012 -80.134061 11.543902 -3.632274 -77.864075 -0.000002 -0.000001 -0.000002 -0.000000 -0.000001 0.000001 4.281749 6.062524 24.486790 -20.183591 30.544008 38.966916 -101.168550 66.637395 94.218662 -10.108813 25.059851 -19.829308 9.450189 -8.378791 2.091222 9.478123 -37.583017 5.312492 0.000000 -0.000000 0.000001 9.382242 -23.801889 56.987171 11.353619 -12.107993 91.751379 -0.000001 0.000000 0.000000 -6.258917 -19.691601 58.403179 17.354302 -6.618594 88.873363 -0.000002 0.000003 -0.000001 -12.782165 -20.150880 66.716072 10.303211 -4.268415 84.398298 -0.000001 -0.000002 0.000002 -20.835270 -25.749922 77.824289 11.580045 3.626305 78.017330 -0.000001 -0.000001 0.000000 0.000000 -0.000001 -0.000001 0.000004 -0.000000 0.000000 0.000004 -0.000000 0.000000 0.000004 -0.000000 0.000000 0.000004 -0.000000 0.000000 0.000004 -0.000000 0.000000 0.000001 0.000000 -0.000000 0.000004 -0.000000 0.000000 0.000004 -0.000000 0.000000 0.000001 0.000000 -0.000000 -0.000000 0.000000 -0.000000 -0.000000 0.000000 -0.000000 -0.000000 0.000000 -0.000000 
0.135458 67.755409 -4.708495 -12.232976 4.176793 0.283484 0.000000 -0.000000 0.000000 -32.743220 -2.771926 14.012101 71.490948 -0.325126 0.470022 -26.229199 -3.321267 -11.504255 -0.000000 0.000001 -0.000000 -0.000000 0.000001 -0.000000 -0.000000 -0.000000 -0.000001 -29.611390 -6.634812 -18.893051 72.396863 -0.197802 -0.577901 -29.611804 -2.152245 10.884367 0.000000 0.000002 0.000000 0.000000 0.000002 0.000000 0.000001 -0.000000 -0.000000 23.831056 0.142501 0.839042 13.805195 -0.026558 0.877420 13.806106 -0.034361 0.873752 16.072156 -1.248016 -1.155621 -9.382882 -3.306537 0.444387 -0.000001 0.000000 0.000000 -0.000001 0.000000 0.000000 -0.000001 0.000000 0.000000 1.202832 -20.287491 -9.383894 -23.683025 -0.501265 -58.145045 -129.876539 -77.684577 -126.405847 -10.999902 -21.654351 17.436747 20.302787 9.934934 -19.709090 3.939289 33.659463 6.068793 0.000000 -0.000001 0.000000 11.348464 7.907821 -58.203682 11.226469 12.103517 -91.045602 0.000000 -0.000001 -0.000002 -3.306172 14.721247 -56.170185 18.751092 6.507062 -95.555569 -0.000000 0.000001 -0.000001 -8.496632 16.099256 -73.492193 10.309653 4.265588 -84.428399 -0.000001 0.000001 0.000002 -15.187841 25.468997 -80.134061 11.543912 -3.632257 -77.864075 -0.000001 -0.000001 -0.000000 -0.000000 0.000000 0.000001 4.360490 5.935279 25.053791 -19.084838 29.887692 38.977243 -103.118241 67.822891 95.667188 -10.145654 25.283427 -19.500491 9.446282 -8.364342 2.093541 9.478000 -37.583061 5.312461 0.000000 -0.000001 -0.000000 9.382264 -23.801881 56.987181 11.353659 -12.108288 91.751406 0.000001 0.000001 0.000000 -6.258518 -19.691517 58.403240 17.354339 -6.618613 88.873342 0.000000 0.000001 0.000002 -12.782121 -20.150883 66.716079 10.303207 -4.268405 84.398284 -0.000001 -0.000003 -0.000000 -20.835246 -25.749951 77.824296 11.580046 3.626325 78.017385 -0.000000 -0.000000 -0.000001 -0.000000 0.000000 0.000000 -0.000000 0.000000 -0.000000 -0.000000 0.000000 -0.000000 -0.000000 0.000000 -0.000000 -0.000000 0.000000 -0.000000 -0.000000 0.000000 -0.000000 -0.000004 0.000000 -0.000000 -0.000000 0.000000 -0.000000 -0.000000 0.000000 -0.000000 -0.000004 0.000000 -0.000000 -0.000001 0.000000 -0.000000 -0.000001 0.000000 -0.000000 0.000000 -0.000000 0.000000 
0.082245 68.012451 -4.474627 -12.399897 4.211186 0.284283 0.000001 -0.000000 0.000000 -31.926452 -2.800757 13.993807 70.811235 -0.313583 0.465845 -26.186631 -3.198478 -11.583614 0.000000 0.000000 0.000000 0.000000 0.000000 0.000000 -0.000001 0.000000 -0.000000 -28.818535 -6.855405 -18.754678 71.716126 -0.193671 -0.569496 -29.581163 -2.219479 10.839925 0.000000 0.000002 0.000000 0.000000 0.000002 0.000000 -0.000001 -0.000000 -0.000001 23.645179 0.119358 0.835385 13.485200 -0.074091 0.867699 13.486095 -0.083624 0.864978 15.039851 -1.249821 -1.288811 -9.417325 -3.318419 0.602191 0.000001 0.000000 -0.000000 0.000001 0.000000 -0.000000 0.000001 0.000000 -0.000000 1.157236 -20.150260 -9.778060 -22.947110 -1.113763 -58.002916 -128.515951 -78.463806 -124.614725 -11.059308 -21.593657 17.251473 20.302582 9.934966 -19.708719 3.939306 33.659517 6.068768 0.000001 -0.000000 0.000000 11.348473 7.907832 -58.203703 11.226866 12.103770 -91.045636 0.000001 -0.000001 -0.000000 -3.306159 14.721247 -56.170168 18.751081 6.507062 -95.555583 0.000001 0.000001 -0.000001 -8.496628 16.099280 -73.492193 10.309643 4.265829 -84.428460 -0.000001 0.000000 0.000001 -15.187858 25.469004 -80.134047 11.543918 -3.632239 -77.864081 -0.000001 0.000001 -0.000000 0.000000 0.000000 0.000001 4.416295 5.793500 25.390706 -17.739864 29.670164 39.116729 -104.281573 68.988599 96.225932 -10.264594 25.068411 -18.893413 9.441727 -8.346803 2.096352 9.477911 -37.583109 5.312429 0.000000 -0.000001 -0.000001 9.382250 -23.801915 56.987192 11.353715 -12.108575 91.751413 -0.000001 0.000000 0.000002 -6.258200 -19.691425 58.403240 17.354315 -6.618640 88.873363 -0.000000 -0.000002 -0.000004 -12.782139 -20.150885 66.716065 10.303206 -4.268425 84.398298 -0.000001 0.000001 0.000006 -20.835258 -25.749957 77.824282 11.580057 3.626334 78.017365 -0.000006 0.000000 0.000002 -0.000000 -0.000000 -0.000001 -0.000001 0.000000 -0.000000 -0.000001 0.000000 -0.000000 -0.000001 0.000000 -0.000000 -0.000001 0.000000 -0.000000 -0.000001 0.000000 -0.000000 -0.000002 -0.000000 -0.000000 -0.000001 0.000000 -0.000000 -0.000001 0.000000 -0.000000 -0.000002 -0.000000 -0.000000 0.000003 0.000000 -0.000000 0.000003 0.000000 -0.000000 0.000001 -0.000000 0.000000 
0.017701 68.266678 -4.236014 -12.414980 4.250012 0.305791 -0.000000 -0.000000 -0.000000 -31.276478 -2.788065 13.978675 70.114754 -0.329001 0.460964 -26.119803 -3.095607 -11.650733 -0.000000 0.000001 0.000000 -0.000000 0.000001 -0.000000 0.000000 0.000001 -0.000001 -28.202360 -7.070339 -18.643741 71.056193 -0.172226 -0.561015 -29.553525 -2.292379 10.774870 0.000000 -0.000002 -0.000000 0.000000 -0.000002 -0.000000 0.000002 0.000003 0.000000 23.415031 0.075242 0.835179 13.067814 -0.162275 0.825651 13.068600 -0.171246 0.822490 13.978638 -1.216189 -1.482818 -9.588729 -3.290706 0.698247 -0.000001 0.000000 0.000000 -0.000001 0.000000 0.000000 -0.000001 0.000000 0.000000 1.128245 -20.026951 -10.044963 -22.214348 -1.700943 -57.924615 -130.356810 -79.992334 -125.863489 -11.142053 -21.528966 16.750354 20.302384 9.935022 -19.708367 3.939283 33.659493 6.068791 0.000002 0.000001 -0.000000 11.348459 7.907823 -58.203689 11.227260 12.104011 -91.045677 -0.000002 0.000002 -0.000003 -3.306175 14.721235 -56.170181 18.751069 6.507076 -95.555576 -0.000001 0.000001 -0.000003 -8.496612 16.099270 -73.492234 10.309676 4.266087 -84.428487 -0.000002 0.000001 -0.000004 -15.187837 25.469004 -80.134088 11.543926 -3.632247 -77.864095 -0.000003 0.000001 0.000002 0.000000 0.000001 -0.000000 4.462506 5.633526 25.560923 -16.203662 29.709093 39.388215 -105.211927 70.240791 96.452100 -10.509728 24.499132 -18.061385 9.436406 -8.325852 2.099711 9.477813 -37.583140 5.312394 -0.000000 -0.000005 0.000000 9.382282 -23.801900 56.987185 11.353751 -12.108763 91.751427 -0.000002 0.000002 -0.000001 -6.257897 -19.691353 58.403302 17.354324 -6.618621 88.873342 -0.000001 -0.000001 0.000001 -12.782118 -20.150906 66.716072 10.303210 -4.268417 84.398298 -0.000001 0.000000 0.000004 -20.835246 -25.749948 77.824289 11.580038 3.626323 78.017371 -0.000001 -0.000003 0.000001 -0.000000 0.000001 -0.000002 0.000003 0.000000 -0.000000 0.000003 0.000000 -0.000000 0.000003 0.000000 -0.000000 0.000003 0.000000 -0.000000 0.000003 0.000000 -0.000000 0.000001 0.000000 -0.000000 0.000003 0.000000 -0.000000 0.000003 0.000000 -0.000000 0.000001 0.000000 -0.000000 0.000001 0.000000 -0.000000 0.000001 0.000000 -0.000000 -0.000000 -0.000000 -0.000000 
